<svg width="48" height="40" viewBox="0 0 48 40" fill="none" xmlns="http://www.w3.org/2000/svg">
<path d="M38.5225 16.6199C38.1141 16.6199 37.7831 16.2918 37.7831 15.8872V15.0989C37.7831 7.58123 31.6117 1.46544 24.0256 1.46544C16.4399 1.46544 10.2682 7.58123 10.2682 15.0989V15.8872C10.2682 16.2918 9.93713 16.6199 9.52881 16.6199C9.12048 16.6199 8.78943 16.2918 8.78943 15.8872V15.0989C8.78943 6.77339 15.6244 0 24.0256 0C32.4269 0 39.2618 6.77339 39.2618 15.0989V15.8872C39.2618 16.2918 38.9308 16.6199 38.5225 16.6199Z" fill="#F7526E"/>
<path d="M22.8395 24.363H12.3076C12.3076 27.7385 10.6036 32.0346 8.96594 33.6579C8.96594 33.6579 10.1898 35.3295 14.9249 35.3295H22.8395V24.363Z" fill="#F2A755"/>
<path d="M35.7437 24.363H24.0249V35.3295H33.1263C37.8615 35.3295 39.0853 33.6579 39.0853 33.6579C37.4476 32.0346 35.7437 27.7381 35.7437 24.363Z" fill="#F4D553"/>
<path d="M17.2855 33.1422C17.4778 36.6668 20.421 39.4656 24.0249 39.4656C24.4636 39.4656 24.8925 39.4235 25.3074 39.3444C28.3052 38.7739 30.5969 36.2382 30.7643 33.1422" fill="#D39B71"/>
<path d="M24.0256 3.20093C30.4973 3.20093 35.7437 8.4 35.7437 14.8134V23.3563C35.7437 29.0152 31.6578 33.7287 26.2511 34.7583C25.6318 34.8762 24.9961 34.9466 24.3464 34.9644H24.3307C24.2186 34.9673 24.1066 34.9684 23.9934 34.968C17.5345 34.9561 12.3076 29.757 12.3076 23.3563V14.8134C12.3076 8.4 17.554 3.20093 24.0256 3.20093Z" fill="#FFD0A6"/>
<path d="M26.0431 34.7957C25.4901 34.8915 24.9232 34.9492 24.3464 34.9648H24.3307C24.2183 34.9677 24.1069 34.9684 23.9934 34.9684C17.5342 34.9557 12.3076 29.757 12.3076 23.3567V14.813C12.3076 8.4 17.5536 3.20093 24.026 3.20093C24.7163 3.20093 25.3912 3.25972 26.049 3.37404C20.5404 4.32341 16.3542 9.08373 16.3542 14.813V23.3567C16.3542 29.082 20.5367 33.8463 26.0431 34.7957Z" fill="#E8B182"/>
<path d="M35.7433 16.0861V18.9756C23.309 18.9756 19.9288 12.1884 19.9288 12.1884C18.6574 15.0329 15.1315 16.9426 12.3073 16.9426V16.0861C12.3073 9.67307 17.5532 4.474 24.0256 4.474C30.497 4.474 35.7433 9.67307 35.7433 16.0861Z" fill="#E8B182"/>
<path d="M35.7433 14.813V17.7025C23.309 17.7025 19.9288 10.9153 19.9288 10.9153C18.6574 13.7598 15.1315 15.6699 12.3073 15.6699V14.813C12.3073 8.4 17.5532 3.20129 24.0256 3.20129C30.497 3.20129 35.7433 8.4 35.7433 14.813Z" fill="#F4D553"/>
<path d="M26.0493 3.37404C26.0468 3.37367 26.0446 3.37331 26.0424 3.37295C25.8904 3.34646 25.7373 3.32359 25.5835 3.30327C25.5692 3.30145 25.5549 3.29928 25.5403 3.29746C25.3956 3.27895 25.2499 3.26371 25.1038 3.25028C25.0712 3.24738 25.0389 3.24448 25.0063 3.24194C24.8628 3.22996 24.7189 3.22052 24.5739 3.21399C24.5457 3.2129 24.5175 3.21218 24.4893 3.21073C24.3358 3.20492 24.182 3.20129 24.0275 3.20093C24.0271 3.20093 24.0267 3.20093 24.0264 3.20093C17.554 3.20093 12.3076 8.4 12.3076 14.813V15.6698C13.6051 15.6698 15.0505 15.2656 16.3575 14.5539C16.4817 8.94074 20.6243 4.30926 26.0493 3.37404Z" fill="#F2A755"/>
<path d="M24.0249 28.2944C22.5165 28.2944 21.0081 27.7254 19.8596 26.5873C19.5707 26.301 19.5707 25.8372 19.8596 25.5512C20.1482 25.2648 20.6166 25.2648 20.9052 25.5512C22.6253 27.2558 25.4246 27.2558 27.145 25.5512C27.4336 25.2648 27.902 25.2648 28.1906 25.5512C28.4792 25.8372 28.4792 26.301 28.1906 26.5873C27.0421 27.7254 25.5337 28.2944 24.0249 28.2944Z" fill="#D39B71"/>
<path d="M18.9207 22.4189C18.5123 22.4189 18.1813 22.0908 18.1813 21.6861V18.8318C18.1813 18.4272 18.5123 18.0991 18.9207 18.0991C19.329 18.0991 19.66 18.4272 19.66 18.8318V21.6861C19.66 22.0908 19.329 22.4189 18.9207 22.4189Z" fill="#1A414C"/>
<path d="M29.1306 22.4189C28.7223 22.4189 28.3912 22.0908 28.3912 21.6861V18.8318C28.3912 18.4272 28.7223 18.0991 29.1306 18.0991C29.5389 18.0991 29.87 18.4272 29.87 18.8318V21.6861C29.87 22.0908 29.5389 22.4189 29.1306 22.4189Z" fill="#1A414C"/>
<path d="M9.52881 27.1168C11.0636 27.1168 12.3076 25.884 12.3076 24.363V17.6644C12.3076 16.1435 11.0636 14.9106 9.52881 14.9106C7.99402 14.9106 6.75 16.1435 6.75 17.6644V24.363C6.75 25.884 7.99402 27.1168 9.52881 27.1168Z" fill="#2E5968"/>
<path d="M10.5095 26.9401C10.2052 27.0544 9.87378 27.1168 9.52881 27.1168C7.99402 27.1168 6.75 25.884 6.75 24.363V17.6648C6.75 16.9048 7.06165 16.216 7.56409 15.7181C8.06689 15.2188 8.76086 14.911 9.52881 14.911C9.87378 14.911 10.2052 14.9734 10.5095 15.0877C10.136 15.2267 9.802 15.4434 9.52478 15.7181C9.02124 16.216 8.71069 16.9048 8.71069 17.6648V24.363C8.71069 25.5421 9.45776 26.5485 10.5095 26.9401Z" fill="#1A414C"/>
<path d="M30.4025 31.8128C29.8276 31.8128 29.2156 31.7921 28.5638 31.7482C28.1562 31.7206 27.8486 31.3712 27.8764 30.9672C27.9042 30.5637 28.2572 30.2585 28.6641 30.2861C33.2626 30.5967 35.5119 29.6662 36.5885 28.83C37.6008 28.0443 37.7623 27.2194 37.7831 27.0754V24.363C37.7831 23.9583 38.1142 23.6306 38.5225 23.6306C38.9308 23.6306 39.2619 23.9583 39.2619 24.363V27.1167C39.2619 27.1334 39.2612 27.1501 39.2601 27.1668C39.2461 27.3686 38.8334 31.8128 30.4025 31.8128Z" fill="#F7526E"/>
<path d="M28.6201 30.8991C28.6201 31.6318 28.021 32.2255 27.2816 32.2255C26.5422 32.2255 25.9431 31.6318 25.9431 30.8991C25.9431 30.1667 26.5422 29.573 27.2816 29.573C28.021 29.573 28.6201 30.1667 28.6201 30.8991Z" fill="#1A414C"/>
<path d="M38.5225 27.1168C40.0573 27.1168 41.3013 25.884 41.3013 24.363V17.6644C41.3013 16.1435 40.0573 14.9106 38.5225 14.9106C36.9877 14.9106 35.7437 16.1435 35.7437 17.6644V24.363C35.7437 25.884 36.9877 27.1168 38.5225 27.1168Z" fill="#2E5968"/>
<path d="M39.5032 26.9401C39.1985 27.0544 38.8674 27.1168 38.5225 27.1168C36.9877 27.1168 35.7437 25.884 35.7437 24.363V17.6648C35.7437 16.9048 36.0549 16.216 36.5577 15.7181C37.0605 15.2188 37.7545 14.911 38.5225 14.911C38.8674 14.911 39.1985 14.9734 39.5032 15.0877C39.1296 15.2267 38.7957 15.4434 38.5184 15.7181C38.0149 16.216 37.7043 16.9048 37.7043 17.6648V24.363C37.7043 25.5421 38.4514 26.5485 39.5032 26.9401Z" fill="#1A414C"/>
</svg>
