<svg width="21" height="22" viewBox="0 0 21 22" fill="none" xmlns="http://www.w3.org/2000/svg">
<path d="M7.54996 19.2041V16.2845C7.54994 15.5419 8.15535 14.9385 8.90545 14.9335H11.653C12.4067 14.9335 13.0177 15.5383 13.0177 16.2845V16.2845V19.2131C13.0175 19.8436 13.5258 20.3589 14.1625 20.3737H15.9943C17.8203 20.3737 19.3005 18.9083 19.3005 17.1005V17.1005V8.79509C19.2908 8.08392 18.9535 7.4161 18.3847 6.98168L12.1201 1.98573C11.0227 1.11584 9.46256 1.11584 8.36508 1.98573L2.12803 6.99075C1.55704 7.42341 1.21919 8.09234 1.21216 8.80416V17.1005C1.21216 18.9083 2.69243 20.3737 4.51844 20.3737H6.35018C7.00268 20.3737 7.53164 19.85 7.53164 19.2041V19.2041" stroke="#F9F9FF" stroke-width="1.5" stroke-linecap="round" stroke-linejoin="round"/>
</svg>
