<svg width="22" height="22" viewBox="0 0 22 22" fill="none" xmlns="http://www.w3.org/2000/svg">
<g clip-path="url(#clip0_2_106)">
<path d="M20.6414 17.5822L19.9487 18.2749L17.2076 15.5338L15.4 17.3414L18.1352 20.0824L17.4514 20.7722C17.417 20.8065 17.3898 20.8473 17.3712 20.8922C17.3526 20.9371 17.343 20.9852 17.343 21.0338C17.343 21.0824 17.3526 21.1305 17.3712 21.1754C17.3898 21.2203 17.417 21.2611 17.4514 21.2954C17.4857 21.3298 17.5265 21.357 17.5714 21.3756C17.6163 21.3942 17.6644 21.4038 17.713 21.4038C17.7616 21.4038 17.8097 21.3942 17.8546 21.3756C17.8995 21.357 17.9403 21.3298 17.9746 21.2954L18.926 20.3441L20.2162 19.0597L21.1706 18.1084C21.2341 18.0378 21.2681 17.9455 21.2657 17.8506C21.2633 17.7556 21.2247 17.6652 21.1577 17.5979C21.0908 17.5305 21.0006 17.4914 20.9057 17.4885C20.8107 17.4855 20.7183 17.5191 20.6473 17.5822H20.6414Z" fill="#8DC643"/>
<path d="M8.83865 5.28298L9.78108 4.34054L8.33919 2.89568C8.26872 2.82721 8.17434 2.78891 8.07608 2.78891C7.97783 2.78891 7.88344 2.82721 7.81297 2.89568L3.02946 7.68217C2.99494 7.71643 2.96755 7.75719 2.94885 7.80209C2.93016 7.84699 2.92053 7.89515 2.92053 7.94379C2.92053 7.99242 2.93016 8.04058 2.94885 8.08548C2.96755 8.13038 2.99494 8.17114 3.02946 8.20541L12.9978 18.1738C13.0678 18.2421 13.1617 18.2803 13.2595 18.2803C13.3572 18.2803 13.4511 18.2421 13.5211 18.1738L18.3046 13.3784C18.3391 13.3441 18.3665 13.3034 18.3852 13.2585C18.4039 13.2136 18.4135 13.1654 18.4135 13.1168C18.4135 13.0681 18.4039 13.02 18.3852 12.9751C18.3665 12.9302 18.3391 12.8894 18.3046 12.8551L16.8627 11.4132L15.9203 12.3557C15.8497 12.4192 15.7574 12.4532 15.6625 12.4508C15.5675 12.4485 15.4771 12.4098 15.4098 12.3429C15.3424 12.2759 15.3033 12.1857 15.3004 12.0908C15.2974 11.9959 15.331 11.9034 15.3941 11.8324L16.3514 10.8959L15.2246 9.78108L13.7381 11.2676C13.7045 11.3054 13.6636 11.3359 13.6178 11.3573C13.572 11.3787 13.5223 11.3906 13.4718 11.3921C13.4213 11.3937 13.371 11.3849 13.3239 11.3663C13.2769 11.3478 13.2342 11.3198 13.1983 11.2842C13.1625 11.2485 13.1343 11.206 13.1155 11.159C13.0966 11.1121 13.0876 11.0619 13.0889 11.0113C13.0901 10.9608 13.1017 10.9111 13.1228 10.8651C13.144 10.8192 13.1743 10.7781 13.2119 10.7443L14.6984 9.25784L13.5835 8.14298L12.6411 9.08541C12.5717 9.15479 12.4776 9.19378 12.3795 9.19378C12.2813 9.19378 12.1872 9.15479 12.1178 9.08541C12.0485 9.01602 12.0095 8.92191 12.0095 8.82379C12.0095 8.72566 12.0485 8.63155 12.1178 8.56216L13.0603 7.61973L11.9454 6.5019L10.4589 7.98838C10.3883 8.05188 10.2961 8.08593 10.2011 8.08355C10.1062 8.08116 10.0158 8.04252 9.94842 7.97556C9.88107 7.9086 9.84192 7.8184 9.839 7.72348C9.83608 7.62855 9.86961 7.53612 9.9327 7.46514L11.4192 5.97865L10.3014 4.86379L9.35892 5.80622C9.28953 5.87561 9.19542 5.91459 9.0973 5.91459C8.99917 5.91459 8.90506 5.87561 8.83567 5.80622C8.76629 5.73683 8.72731 5.64273 8.72731 5.5446C8.72731 5.44647 8.76629 5.35236 8.83567 5.28298H8.83865Z" fill="#8DC643"/>
<path d="M5.72893 2.71431C5.69441 2.6797 5.6534 2.65225 5.60825 2.63351C5.5631 2.61478 5.5147 2.60513 5.46582 2.60513C5.41694 2.60513 5.36854 2.61478 5.32339 2.63351C5.27824 2.65225 5.23723 2.6797 5.20271 2.71431L2.84515 5.07188C2.77687 5.14185 2.73865 5.23574 2.73865 5.3335C2.73865 5.43126 2.77687 5.52515 2.84515 5.59512L3.45758 6.20458L6.33839 3.32377L5.72893 2.71431Z" fill="#8DC643"/>
<path d="M1.35862 0.704598C1.32436 0.670081 1.2836 0.642686 1.2387 0.623992C1.1938 0.605297 1.14564 0.595673 1.097 0.595673C1.04836 0.595673 1.00021 0.605297 0.955307 0.623992C0.910406 0.642686 0.869647 0.670081 0.835381 0.704598C0.767102 0.774567 0.728882 0.868457 0.728882 0.96622C0.728882 1.06398 0.767102 1.15787 0.835381 1.22784L3.23754 3.63L3.76376 3.10676L1.35862 0.704598Z" fill="#8DC643"/>
</g>
<defs>
<clipPath id="clip0_2_106">
<rect width="22" height="22" fill="white"/>
</clipPath>
</defs>
</svg>
