<svg width="30" height="30" viewBox="0 0 30 30" fill="none" xmlns="http://www.w3.org/2000/svg">
<g clip-path="url(#clip0_2_118)">
<path d="M25.2437 5.0745C22.3632 2.05517 17.9364 1.5917 14.6617 3.41085C14.3788 3.568 14.2769 3.92484 14.434 4.20773C14.5912 4.49073 14.948 4.59251 15.2309 4.43542C18.2261 2.7713 21.9947 3.36691 24.3933 5.88099C26.868 8.50663 27.1467 12.4204 25.2321 15.3221C22.595 19.3276 16.8991 19.9313 13.4841 16.5156C11.183 14.2153 10.5163 10.5055 12.1785 7.48674C12.3345 7.20315 12.2311 6.84679 11.9476 6.69081C11.664 6.53495 11.3077 6.63825 11.1516 6.92178C11.1157 6.98712 11.0518 7.10887 10.9903 7.23374H10.9903C9.28594 10.708 10.0614 14.7514 12.6554 17.3444C16.5899 21.2797 23.1619 20.5981 26.2108 15.9671C28.3973 12.6531 28.1291 8.13573 25.2437 5.0745Z" fill="#F9F9FF"/>
<path d="M26.7445 3.25581C22.4032 -1.08487 15.3392 -1.08504 10.9977 3.25587C7.09376 7.16043 6.67346 13.2821 9.8527 17.6615L8.02651 19.4872C7.38625 19.1808 6.57661 19.2797 6.02524 19.8311L0.859508 24.9974C-0.285822 26.142 -0.28676 27.9956 0.859215 29.1408C2.00408 30.2864 3.85757 30.2869 5.00267 29.1409L10.1692 23.975C10.7203 23.4238 10.8196 22.6141 10.513 21.9738L12.3389 20.1475C16.7193 23.3274 22.8405 22.906 26.7445 19.0026C31.0853 14.6612 31.0853 7.59724 26.7445 3.25581ZM9.34035 23.1463L4.17374 28.3123C3.48708 28.9994 2.37556 29.0001 1.68796 28.312C1.00066 27.6252 1.00025 26.5137 1.68808 25.8263L6.85393 20.6599C7.08227 20.4315 7.45405 20.4314 7.68239 20.6599L9.34029 22.3178C9.56881 22.5462 9.56881 22.9179 9.34035 23.1463ZM9.75473 21.0746L8.92574 20.2456L10.5946 18.5772C10.7254 18.7225 10.8599 18.8649 10.9977 19.0026C11.1354 19.1403 11.2778 19.2748 11.4231 19.4058L9.75473 21.0746ZM25.9157 18.1738C22.0323 22.0566 15.7418 22.0897 11.8264 18.1738C7.91565 14.2635 7.93891 7.97271 11.8264 4.08461C15.7105 0.20103 22.0309 0.200385 25.9156 4.08461C29.7995 7.96902 29.7995 14.2895 25.9157 18.1738Z" fill="#F9F9FF"/>
<path d="M13.4982 4.92824C13.4941 4.92297 13.4894 4.91828 13.4842 4.91301C13.255 4.68443 12.8841 4.68443 12.655 4.91301C12.4264 5.14217 12.4264 5.51312 12.655 5.74223C12.6602 5.7475 12.6649 5.75219 12.6702 5.75687C12.9005 5.9708 13.2603 5.96553 13.4842 5.74223C13.7074 5.51834 13.7127 5.15852 13.4982 4.92824Z" fill="#F9F9FF"/>
</g>
<defs>
<clipPath id="clip0_2_118">
<rect width="30" height="30" fill="white"/>
</clipPath>
</defs>
</svg>
